<svg width="225" height="124" viewBox="0 0 225 124" fill="none" xmlns="http://www.w3.org/2000/svg">
<g clip-path="url(#clip0_15143_846)">
<path d="M162.46 30.0402C161.52 30.0217 156.285 30.5247 155.995 30.88L143.318 62.2584C142.245 62.4938 142.581 62.1108 142.295 61.6678C139.544 57.4178 137.328 49.2779 135.25 44.2804C134.388 42.2132 131.342 34.2209 130.222 33.1642C128.743 31.7706 121.9 31.7152 120.716 33.3857C120.223 34.0825 120.338 34.4978 120.264 35.2407C118.721 50.7822 122.048 68.4187 120.725 84.2048C120.629 87.2042 128.858 86.8951 129.416 85.0077L129.974 56.7211L131.388 57.0072L140.798 80.2548C144.102 82.396 145.318 77.763 146.493 75.345C149.461 69.2355 151.769 62.7845 154.447 56.5457L156.239 55.8028V86.9504C156.239 88.93 163.183 89.4561 164.538 88.7962L165.446 87.398L165.234 31.3369C164.875 30.617 163.262 30.054 162.474 30.0402H162.46Z" fill="#FAFAFA"/>
<path d="M103.146 57.3255C103.519 56.6888 103.708 56.0935 104.62 56.2642V85.1046C105.689 86.6828 111.703 86.6551 112.73 85.843L113.366 84.634L112.961 33.3811C112.03 32.1951 106.74 32.7397 105.081 32.9612C104.132 33.4226 101.551 39.6106 100.939 41.0411C99.9709 43.2791 99.0907 45.6925 98.1737 47.9628C97.5332 49.5548 93.7454 60.8602 92.8745 60.8741C89.695 55.4013 88.1191 49.1626 85.7321 43.3483C84.6999 40.8288 83.7276 37.894 82.5065 35.5037C80.29 31.1661 77.5805 30.6355 72.8942 31.8768L72.3689 37.3495C72.5394 43.7682 72.4656 50.3069 72.3689 56.7303C72.3228 59.7574 72.5532 62.9737 72.3689 65.9592C73.12 70.0707 71.1478 84.4771 72.9034 87.3427C73.9402 89.0316 81.5849 87.9102 81.5849 86.0322V57.6532L82.8936 58.4192L91.059 77.9291C93.8284 80.744 94.8744 77.3293 95.9481 75.0405C98.4272 69.7523 100.367 62.0646 103.146 57.3302V57.3255Z" fill="#FAFAFA"/>
<path d="M65.2217 85.3308C67.6824 79.8995 66.7654 71.4735 66.8345 65.4885C66.9682 54.0631 66.7885 42.6054 66.77 31.1754C66.3415 29.911 59.2083 29.0665 58.6046 30.0264L58.0793 77.4862C58.0056 78.8197 58.2452 79.5442 57.5586 80.8916C55.697 84.5232 49.3241 84.2602 49.3241 80.0241V40.8011C49.3241 39.163 49.3886 37.6125 49.3241 35.9559C49.2596 34.3501 49.5314 32.3843 49.3241 30.88C48.6974 26.3302 44.0617 27.5345 40.5689 26.727L40.1081 27.1885V39.1861C40.1081 45.9463 40.062 52.7295 40.1081 59.4897C40.1495 65.4101 39.8316 71.6166 40.1081 77.4862C40.2693 80.9655 40.6656 85.6861 42.8729 88.5609C47.7435 94.9058 62.0284 92.3724 65.2217 85.3308Z" fill="#FAFAFA"/>
<path d="M223.654 19.8561L191.122 27.2946C190.785 27.4469 189.868 28.139 189.868 28.3467V35.2684L190.633 35.8867L201.849 34.5762V95.2565C201.849 96.9084 205.609 97.6929 206.918 97.7944C209.333 97.9836 211.941 98.3805 211.996 95.2657L211.964 33.8379C211.904 33.2288 212.038 33.0811 212.448 32.7304C214.024 31.3876 223.198 31.443 224.47 29.7725C225.074 28.0698 225.539 20.4329 223.654 19.8561Z" fill="#FAFAFA"/>
<path d="M183.897 31.0969C183.841 30.414 183.671 28.6651 183.307 28.2313C182.523 27.3038 173.648 28.0329 174.178 31.0877L174.197 87.8733L175.229 91.2234C177.634 91.7864 183.408 93.9967 183.897 90.199C182.722 71.0028 185.385 50.0901 183.897 31.0969Z" fill="#FAFAFA"/>
<path d="M132.618 92.8385C121.269 94.3751 116.583 108.5 123.527 117.397C134.411 131.346 155.032 117.969 148.484 102.095C146 96.0732 139.093 91.9664 132.618 92.8431V92.8385ZM140.111 115.569C132.185 121.744 122.191 111.255 127.103 102.543C128.038 100.886 130.757 98.745 132.6 98.362C142.355 96.3409 147.705 109.654 140.111 115.569Z" fill="#FAFAFA"/>
<path d="M79.8431 109.907C76.6267 108.934 77.4377 113.387 75.8295 113.018C75.3457 112.053 70.9404 109.104 71.4427 108.412C79.5067 106.58 78.5713 95.0257 70.3045 94.5412C64.2035 94.1813 60.6185 99.0173 62.9225 104.712C63.245 105.51 65.3278 107.96 64.9915 108.398C62.2819 108.721 60.5908 112.141 60.3788 114.637C59.5632 124.203 71.2077 126.663 77.1981 120.978C78.6957 121.231 80.5205 124.637 82.0319 123.885L84.8013 121.093L79.7832 116.391C79.3454 114.683 84.8704 111.426 79.8477 109.903L79.8431 109.907ZM69.0143 98.7911C71.2676 98.4497 73.3734 101.444 71.4519 103.572C67.9498 107.443 64.6551 99.4556 69.0143 98.7911ZM66.5351 117.932C64.5629 115.957 65.3785 113.054 67.5904 111.67L73.7375 117.406C71.8574 119.049 68.4705 119.87 66.5351 117.937V117.932Z" fill="#FAFAFA"/>
<path d="M116.836 114.028C111.809 119.201 102.865 118.153 100.607 110.812C97.6298 101.149 108.035 94.2828 115.914 100.554C117.228 100.129 119.398 98.5743 119.361 97.0884C117.057 93.1892 110.514 92.2248 106.357 92.8385C85.2988 95.9302 94.7222 132.477 115.997 121.411C120.545 119.044 120.642 117.503 116.841 114.028H116.836Z" fill="#FAFAFA"/>
<path d="M100.473 27.1931C102.349 25.5734 104.192 23.8153 106.003 22.1171C106.828 21.3419 111.058 16.2245 111.993 17.0458L107.846 22.5786C107.846 22.6247 106.906 23.2569 108.081 23.4969C109.602 23.8107 109.118 22.8093 109.703 22.3802C110.629 21.6972 110.998 21.6926 111.989 20.7328C112.758 19.9899 113.551 19.1962 114.293 18.4256C115.564 17.0966 117.011 15.3247 118.44 13.8111C119.965 12.196 121.375 10.4287 122.822 8.7398L123.172 10.3503L124.177 11.0286C125.872 10.3503 128.223 6.25261 129.614 6.5064C131.259 6.80634 134.148 11.6838 135.476 13.1328C137.867 15.7353 140.475 18.1949 143.323 20.2714C143.623 20.2391 143.94 20.299 144.245 20.2714C144.051 19.9068 143.931 19.1131 143.784 18.8916C143.24 18.0795 141.798 16.7551 141.019 15.6615C140.438 14.8447 140.282 13.5527 140.097 13.3543C140.024 13.2758 139.314 13.3266 138.982 12.8744C137.614 11.0378 129.964 0.216881 128.748 0.00461578C125.435 2.9025 121.923 6.01727 118.905 9.20125C117.799 10.3641 117.034 12.4268 115.385 13.322L111.062 10.7979C109.15 12.7913 107.251 14.8863 105.542 17.0458C103.215 19.9899 100.077 24.2121 98.0539 27.3407C97.6714 27.936 97.077 28.2959 97.7083 29.0435C98.5009 28.3744 99.6943 27.8714 100.473 27.1977V27.1931Z" fill="#FAFAFA"/>
<path d="M152.041 122.519C155.46 125.389 158.972 120.308 156.571 117.752C153.281 114.25 148.889 119.875 152.041 122.519Z" fill="#FAFAFA"/>
<path d="M10.9257 35.1161C12.5938 29.3619 21.667 30.2248 23.2106 35.5776C23.8742 37.8756 23.4549 44.4004 24.2014 45.6602C25.2842 47.4829 32.9842 48.978 33.6432 45.411C34.0256 43.3391 33.7676 36.1913 33.1962 34.1194C33.0073 33.4318 31.8 31.1661 31.353 30.4278C26.8371 22.9754 16.0129 18.564 7.85214 22.5832C2.26723 25.3288 -0.239529 32.3659 0.01852 38.2678C0.239705 43.3345 2.84323 47.5844 5.54813 51.6497C10.9257 59.7251 25.0124 72.5671 24.8511 82.2898C24.7774 86.7197 21.2615 91.2742 16.6719 91.5418C8.16088 92.0448 13.1007 79.2074 11.2989 75.1928C10.5064 73.43 6.3914 72.5118 4.62653 72.8763C4.00445 73.0055 2.04144 74.5698 1.86172 75.1835C1.70044 75.728 1.43779 78.7228 1.38249 79.5488C0.437849 93.9644 4.80624 105.538 21.6577 100.309C32.7861 96.8577 33.7814 89.3869 34.5832 79.3366C33.8137 73.37 30.8876 68.4326 27.3993 63.6889C22.3305 56.7903 8.25304 44.3635 10.9303 35.1207L10.9257 35.1161Z" fill="#FAFAFA"/>
</g>
<defs>
<clipPath id="clip0_15143_846">
<rect width="225" height="124" fill="white"/>
</clipPath>
</defs>
</svg>
